<!-- https://github.com/googlefonts/noto-emoji/blob/main/svg/emoji_u1f360.svg -->
<svg viewBox="0 0 128 128" xmlns="http://www.w3.org/2000/svg">
  <g fill="tomato">
    <path fill-rule="evenodd"
      d="M34.116,79.481C34.076,79.413 34.037,79.345 34,79.28C32.9,77.35 29.18,69.24 29.73,60.16C29.92,57.13 30.01,53.42 32.62,46.82C35.24,40.22 39.78,37.61 46.79,31.97C53.8,26.33 65.61,19 74.44,16.02C82.96,13.14 96.85,13 98.78,12.31C100.71,11.62 108.27,7.36 108.27,7.36C108.27,7.36 110.71,2.43 114.32,3.65C114.936,3.858 115.366,4.144 115.661,4.493C118.526,5.775 117.759,9.718 117.89,11.51C118.03,13.43 118.57,19.54 118.85,22.7C119.13,25.86 118.85,36.54 117.62,42.87C116.39,49.2 113.22,57.31 111.71,60.47C110.2,63.63 104.57,73.4 102.29,76.68C99.81,80.25 89.96,89 86.66,91.27C83.25,93.614 76.518,97.425 74.158,98.448C74.202,99.388 74.178,100.363 74.11,101.33C73.92,104.18 72.74,111.14 72.25,112.02C71.76,112.91 64.07,124.19 41.42,124C18.77,123.81 11.75,112.58 11.06,111.34C10.57,110.46 9.39,107.12 8.91,104.45C8.42,101.8 7.93,96.89 8.32,95.72C8.71,94.55 7.51,92.28 11.24,89.44C14.27,87.13 19.09,85.38 22.22,84.4C25.35,83.42 25.71,81.77 28.25,80.74C29.507,80.233 31.574,79.779 34.116,79.481ZM11.569,96.569C11.569,96.569 11.569,96.568 11.569,96.568C11.638,94.747 12.805,93.323 14.342,92.166C16.926,90.221 20.577,89.046 22.899,88.37C24.737,87.835 25.551,87.136 26.321,86.369C27.25,85.443 28.098,84.398 31.511,83.475C37.54,81.846 47.86,82.393 54.182,84.441C54.182,84.441 54.182,84.441 54.182,84.441C61.196,86.712 60.982,88.635 63.919,91.292C63.92,91.292 63.92,91.292 63.92,91.293C65.195,92.441 66.677,93.157 67.998,93.9C69.566,94.782 70.9,95.685 70.85,97.978C70.85,97.979 70.85,97.979 70.85,97.98C70.818,99.613 69.529,102.067 66.852,104.45C62.54,108.289 54.676,111.796 42.263,111.51C42.263,111.51 42.263,111.51 42.263,111.51C27.859,111.183 19.529,107.493 15.227,103.467C12.569,100.979 11.497,98.414 11.569,96.569ZM72.508,93.134C75.057,92.11 77.715,90.437 78.832,89.215C80.148,87.775 83.388,83.472 84.18,79.533C84.986,75.519 86.191,62.742 81.175,54.489C81.175,54.489 81.175,54.489 81.175,54.489C76.491,46.777 72.091,45.248 69.661,43.229C67.274,41.247 64.755,40.328 61.848,39.27C58.948,38.217 54.594,36.59 47.157,39.078C47.157,39.078 47.157,39.079 47.156,39.079C42.051,40.781 40.751,44.161 38.526,47.298L38.526,47.298C34.964,52.324 34.488,58.368 34.719,63.595C34.971,69.172 36.28,74.572 39.38,79.132C44.333,79.034 50.004,79.54 54.89,81.12C64.6,84.26 64.86,87.49 66.23,88.76C67.467,89.908 70.956,91.474 72.508,93.134ZM104,56.083C103.22,53.903 97.9,54.253 95.13,59.873C92.69,64.813 94.72,67.893 96.35,67.993C99.46,68.193 99.19,63.953 100.28,62.033C102.03,58.923 105.01,58.923 104,56.083ZM97.3,44.67C93.85,44.19 94.12,39.19 97.03,36.14C99.61,33.44 104.68,34.31 104.54,36.95C104.48,38.08 103.03,37.39 101.43,39.18C100.08,40.69 100.68,45.14 97.3,44.67ZM71.736,32.143C71.436,33.953 74.166,36.253 78.716,35.253C83.436,34.213 85.436,28.973 83.626,27.613C80.606,25.353 78.396,30.043 76.926,30.443C74.846,31.013 72.016,30.443 71.736,32.143ZM99.73,23.61C99.59,26.25 103.29,26.66 104.94,26.32C109.2,25.44 110.97,20.23 109.14,19.55C107.23,18.84 107.11,21.11 105.28,21.51C103.46,21.91 99.87,21.1 99.73,23.61Z" />
  </g>
</svg>
